# xmcd CD database file
#
# Track frame offsets:
#	150
#	3090
#	14955
#	30650
#	46533
#	57328
#	70265
#	82145
#	96120
#	114123
#	132038
#	141513
#	143903
#	151480
#	167118
#	177825
#	186200
#	194413
#	207983
#	222163
#	238500
#	254263
#	267270
#	283753
#	291293
#	298678
#	306623
#
# Disc length: 4220 seconds
#
# Revision: 0
# Processed by: cddbd v1.5.1PL0 Copyright (c) Steve Scherf et al.
# Submitted via: CDex 1.51
#
DISCID=9e107a1b
DTITLE=Frank Sinatra - It's Frank Sinatra
DYEAR=1900
DGENRE=Jazz
TTITLE0=Vimms Vitamins Presents The Frank Sinatra Program
TTITLE1=There'll Be a Hot Time in the Town of Berlin
TTITLE2=The Song Is You
TTITLE3=Where or When
TTITLE4=America the Beauteful
TTITLE5=Nancy (With the Laughin' Face
TTITLE6=She's Funny That Way
TTITLE7=It Could Happen to You
TTITLE8=I'll Be Seeing You
TTITLE9=Begin the Beguine
TTITLE10=Speak Low
TTITLE11=Max Factor Presents The Frank Sinatra Show
TTITLE12=It's Only a Paper Moon
TTITLE13=I Fall in Love To Easily
TTITLE14=Someone to Watch Over Me
TTITLE15=Two Hearts Are Better Than One
TTITLE16=I Fall in Love With You Everyday
TTITLE17=The Charm of You
TTITLE18=Oh Bess, Where's My Bess
TTITLE19=It Might As Well Be Spring
TTITLE20=The House I Live In (That's America To Me)
TTITLE21=The Coffee in Brazil
TTITLE22=Lost in the Stars
TTITLE23=Closing Theme - Put Your Dreams Away
TTITLE24=I Saw You First
TTITLE25=A Lovely Way to Spend an Evening
TTITLE26=I Couldn't Sleep a Wink Last Night
EXTD=
EXTT0=
EXTT1=
EXTT2=
EXTT3=
EXTT4=
EXTT5=
EXTT6=
EXTT7=
EXTT8=
EXTT9=
EXTT10=
EXTT11=
EXTT12=
EXTT13=
EXTT14=
EXTT15=
EXTT16=
EXTT17=
EXTT18=
EXTT19=
EXTT20=
EXTT21=
EXTT22=
EXTT23=
EXTT24=
EXTT25=
EXTT26=
PLAYORDER=
